<mxfile host="app.diagrams.net" modified="2024-07-18T04:14:41.169Z" agent="Mozilla/5.0 (X11; Linux x86_64; rv:125.0) Gecko/20100101 Firefox/125.0" etag="KtasxMW3mhiXuRbNd0eu" version="24.7.1" type="device">
  <diagram name="Page-1" id="74b105a0-9070-1c63-61bc-23e55f88626e">
    <mxGraphModel dx="1788" dy="978" grid="1" gridSize="10" guides="1" tooltips="1" connect="1" arrows="1" fold="1" page="1" pageScale="1.5" pageWidth="1169" pageHeight="826" background="none" math="0" shadow="0">
      <root>
        <mxCell id="0" style=";html=1;" />
        <mxCell id="1" style=";html=1;" parent="0" />
        <mxCell id="10b056a9c633e61c-30" value="Fokus API Concept" style="text;strokeColor=none;fillColor=none;html=1;fontSize=24;fontStyle=1;verticalAlign=middle;align=center;" parent="1" vertex="1">
          <mxGeometry x="80" y="40" width="1590" height="40" as="geometry" />
        </mxCell>
        <mxCell id="gggYuFdVf7hl8E08xoxF-8" style="edgeStyle=orthogonalEdgeStyle;rounded=0;orthogonalLoop=1;jettySize=auto;html=1;exitX=0;exitY=0.5;exitDx=0;exitDy=0;endArrow=none;endFill=0;strokeWidth=3;" edge="1" parent="1" source="gggYuFdVf7hl8E08xoxF-1">
          <mxGeometry relative="1" as="geometry">
            <mxPoint x="490" y="360" as="targetPoint" />
          </mxGeometry>
        </mxCell>
        <mxCell id="gggYuFdVf7hl8E08xoxF-9" value="&lt;div style=&quot;font-size: 15px;&quot;&gt;Interacting with the API&lt;/div&gt;&lt;div style=&quot;font-size: 15px;&quot;&gt;(for example: Activate Service &quot;Messenger VM&quot;)&lt;br style=&quot;font-size: 15px;&quot;&gt;&lt;/div&gt;" style="edgeLabel;html=1;align=center;verticalAlign=middle;resizable=0;points=[];fontSize=15;" vertex="1" connectable="0" parent="gggYuFdVf7hl8E08xoxF-8">
          <mxGeometry x="0.3351" y="3" relative="1" as="geometry">
            <mxPoint x="41" y="67" as="offset" />
          </mxGeometry>
        </mxCell>
        <mxCell id="gggYuFdVf7hl8E08xoxF-19" style="rounded=0;orthogonalLoop=1;jettySize=auto;html=1;exitX=0;exitY=0.25;exitDx=0;exitDy=0;strokeWidth=3;" edge="1" parent="1" source="gggYuFdVf7hl8E08xoxF-1" target="gggYuFdVf7hl8E08xoxF-17">
          <mxGeometry relative="1" as="geometry" />
        </mxCell>
        <mxCell id="gggYuFdVf7hl8E08xoxF-20" value="&lt;div&gt;Enable/Disable Proxy Access&lt;/div&gt;&lt;div&gt;for my Clients&lt;br&gt;&lt;/div&gt;" style="edgeLabel;html=1;align=center;verticalAlign=middle;resizable=0;points=[];" vertex="1" connectable="0" parent="gggYuFdVf7hl8E08xoxF-19">
          <mxGeometry x="0.1791" relative="1" as="geometry">
            <mxPoint as="offset" />
          </mxGeometry>
        </mxCell>
        <mxCell id="gggYuFdVf7hl8E08xoxF-1" value="System not managed by myself (No Root)" style="rounded=0;whiteSpace=wrap;html=1;labelPosition=center;verticalLabelPosition=top;align=center;verticalAlign=bottom;fontSize=17;fontStyle=1;fillColor=#fff2cc;strokeColor=#d6b656;" vertex="1" parent="1">
          <mxGeometry x="820" y="280" width="560" height="220" as="geometry" />
        </mxCell>
        <mxCell id="gggYuFdVf7hl8E08xoxF-2" value="&lt;font style=&quot;font-size: 18px;&quot;&gt;Fokus API&lt;br&gt;&lt;/font&gt;" style="rounded=0;whiteSpace=wrap;html=1;fillColor=#ffe6cc;strokeColor=#d79b00;" vertex="1" parent="1">
          <mxGeometry x="860" y="340" width="190" height="100" as="geometry" />
        </mxCell>
        <mxCell id="gggYuFdVf7hl8E08xoxF-7" value="Clients" style="group;fillColor=#dae8fc;strokeColor=#6c8ebf;labelPosition=center;verticalLabelPosition=top;align=center;verticalAlign=bottom;fontSize=17;fontStyle=1" vertex="1" connectable="0" parent="1">
          <mxGeometry x="290" y="280" width="200" height="170" as="geometry" />
        </mxCell>
        <mxCell id="gggYuFdVf7hl8E08xoxF-3" value="" style="fontColor=#0066CC;verticalAlign=top;verticalLabelPosition=bottom;labelPosition=center;align=center;html=1;outlineConnect=0;fillColor=#CCCCCC;strokeColor=#6881B3;gradientColor=none;gradientDirection=north;strokeWidth=2;shape=mxgraph.networks.pc;" vertex="1" parent="gggYuFdVf7hl8E08xoxF-7">
          <mxGeometry x="80" y="60" width="100" height="70" as="geometry" />
        </mxCell>
        <mxCell id="gggYuFdVf7hl8E08xoxF-5" value="" style="verticalLabelPosition=bottom;sketch=0;aspect=fixed;html=1;verticalAlign=top;strokeColor=none;align=center;outlineConnect=0;shape=mxgraph.citrix.cell_phone;" vertex="1" parent="gggYuFdVf7hl8E08xoxF-7">
          <mxGeometry x="30" y="30" width="25" height="60" as="geometry" />
        </mxCell>
        <mxCell id="gggYuFdVf7hl8E08xoxF-14" style="edgeStyle=orthogonalEdgeStyle;rounded=0;orthogonalLoop=1;jettySize=auto;html=1;exitX=0;exitY=0.5;exitDx=0;exitDy=0;endArrow=none;endFill=0;startArrow=classic;startFill=1;strokeWidth=3;" edge="1" parent="1" source="gggYuFdVf7hl8E08xoxF-10">
          <mxGeometry relative="1" as="geometry">
            <mxPoint x="430" y="450" as="targetPoint" />
          </mxGeometry>
        </mxCell>
        <mxCell id="gggYuFdVf7hl8E08xoxF-15" value="&lt;div style=&quot;font-size: 16px;&quot;&gt;&lt;font style=&quot;font-size: 16px;&quot;&gt;Accessing the ChatVM&lt;/font&gt;&lt;/div&gt;&lt;div style=&quot;font-size: 16px;&quot;&gt;&lt;font style=&quot;font-size: 16px;&quot;&gt;&lt;font style=&quot;font-size: 16px;&quot;&gt;over Remote Desktop&lt;/font&gt;&lt;font style=&quot;font-size: 16px;&quot;&gt;&lt;br&gt;&lt;/font&gt;&lt;/font&gt;&lt;/div&gt;" style="edgeLabel;html=1;align=center;verticalAlign=middle;resizable=0;points=[];" vertex="1" connectable="0" parent="gggYuFdVf7hl8E08xoxF-14">
          <mxGeometry x="-0.0479" y="-2" relative="1" as="geometry">
            <mxPoint as="offset" />
          </mxGeometry>
        </mxCell>
        <mxCell id="gggYuFdVf7hl8E08xoxF-10" value="Hetzner Cloud (Only Fokus API has Tennant access, I&#39;m not)" style="rounded=0;whiteSpace=wrap;html=1;labelPosition=center;verticalLabelPosition=top;align=center;verticalAlign=bottom;fontSize=17;fontStyle=1;fillColor=#e1d5e7;strokeColor=#9673a6;" vertex="1" parent="1">
          <mxGeometry x="820" y="590" width="560" height="220" as="geometry" />
        </mxCell>
        <mxCell id="gggYuFdVf7hl8E08xoxF-11" value="&lt;div&gt;&lt;font style=&quot;font-size: 17px;&quot;&gt;Chat VM&lt;/font&gt;&lt;/div&gt;&lt;br&gt;(with Root Access for myself)" style="image;sketch=0;aspect=fixed;html=1;points=[];align=center;fontSize=12;image=img/lib/mscae/VM_Linux.svg;" vertex="1" parent="1">
          <mxGeometry x="870" y="650" width="97.83" height="90" as="geometry" />
        </mxCell>
        <mxCell id="gggYuFdVf7hl8E08xoxF-12" style="edgeStyle=orthogonalEdgeStyle;rounded=0;orthogonalLoop=1;jettySize=auto;html=1;exitX=0.5;exitY=1;exitDx=0;exitDy=0;entryX=0.05;entryY=-0.019;entryDx=0;entryDy=0;entryPerimeter=0;strokeWidth=3;" edge="1" parent="1" source="gggYuFdVf7hl8E08xoxF-2" target="gggYuFdVf7hl8E08xoxF-10">
          <mxGeometry relative="1" as="geometry" />
        </mxCell>
        <mxCell id="gggYuFdVf7hl8E08xoxF-13" value="Firewall on/off via API" style="edgeLabel;html=1;align=center;verticalAlign=middle;resizable=0;points=[];fontSize=18;" vertex="1" connectable="0" parent="gggYuFdVf7hl8E08xoxF-12">
          <mxGeometry x="0.1609" y="1" relative="1" as="geometry">
            <mxPoint x="71" y="24" as="offset" />
          </mxGeometry>
        </mxCell>
        <mxCell id="gggYuFdVf7hl8E08xoxF-18" style="rounded=0;orthogonalLoop=1;jettySize=auto;html=1;endArrow=none;endFill=0;strokeWidth=3;" edge="1" parent="1" source="gggYuFdVf7hl8E08xoxF-17">
          <mxGeometry relative="1" as="geometry">
            <mxPoint x="480" y="280" as="targetPoint" />
          </mxGeometry>
        </mxCell>
        <mxCell id="gggYuFdVf7hl8E08xoxF-21" value="Internet Access" style="edgeLabel;html=1;align=center;verticalAlign=middle;resizable=0;points=[];" vertex="1" connectable="0" parent="gggYuFdVf7hl8E08xoxF-18">
          <mxGeometry x="0.1335" y="-2" relative="1" as="geometry">
            <mxPoint as="offset" />
          </mxGeometry>
        </mxCell>
        <mxCell id="gggYuFdVf7hl8E08xoxF-17" value="&lt;div style=&quot;font-size: 16px;&quot;&gt;Internet Proxy&lt;/div&gt;&lt;div style=&quot;font-size: 16px;&quot;&gt;(For YouTube, Reddit, eg. access)&lt;br style=&quot;font-size: 16px;&quot;&gt;&lt;/div&gt;" style="verticalLabelPosition=middle;sketch=0;aspect=fixed;html=1;verticalAlign=middle;strokeColor=none;align=right;outlineConnect=0;shape=mxgraph.citrix.proxy_server;labelPosition=left;fontSize=16;" vertex="1" parent="1">
          <mxGeometry x="520" y="120" width="76.5" height="90" as="geometry" />
        </mxCell>
        <mxCell id="gggYuFdVf7hl8E08xoxF-24" value="&lt;div style=&quot;font-size: 17px;&quot;&gt;Fokus API:&lt;/div&gt;&lt;div style=&quot;font-size: 17px;&quot;&gt;- Controls my services&lt;/div&gt;&lt;div style=&quot;font-size: 17px;&quot;&gt;- Hosted by a trusted thirdparty&lt;/div&gt;&lt;div style=&quot;font-size: 17px;&quot;&gt;- Gives me freedom from distractions&lt;br style=&quot;font-size: 17px;&quot;&gt;&lt;/div&gt;" style="shape=note;whiteSpace=wrap;html=1;backgroundOutline=1;fontColor=#000000;darkOpacity=0.05;fillColor=#FFF9B2;strokeColor=none;fillStyle=solid;direction=west;gradientDirection=north;gradientColor=#FFF2A1;shadow=1;size=20;pointerEvents=1;fontSize=17;labelPosition=center;verticalLabelPosition=middle;align=left;verticalAlign=middle;" vertex="1" parent="1">
          <mxGeometry x="1070" y="290" width="290" height="200" as="geometry" />
        </mxCell>
      </root>
    </mxGraphModel>
  </diagram>
</mxfile>
